<mxfile host="app.diagrams.net" agent="Mozilla/5.0 (Windows NT 10.0; Win64; x64) AppleWebKit/537.36 (KHTML, like Gecko) Chrome/134.0.0.0 Safari/537.36 Edg/134.0.0.0" version="26.0.16">
  <diagram name="Trang-1" id="F2xkquYt5GHNJze43k73">
    <mxGraphModel dx="1869" dy="531" grid="1" gridSize="10" guides="1" tooltips="1" connect="1" arrows="1" fold="1" page="1" pageScale="1" pageWidth="827" pageHeight="1169" math="0" shadow="0">
      <root>
        <mxCell id="0" />
        <mxCell id="1" parent="0" />
        <mxCell id="nxoV8YWPa040tWxA0tgp-1" value="Moderator&lt;br&gt;&lt;div&gt;&lt;br&gt;&lt;/div&gt;" style="shape=umlActor;verticalLabelPosition=bottom;verticalAlign=top;html=1;outlineConnect=0;" parent="1" vertex="1">
          <mxGeometry x="10" y="210" width="25" height="60" as="geometry" />
        </mxCell>
        <mxCell id="nxoV8YWPa040tWxA0tgp-13" value="Review Reports" style="ellipse;whiteSpace=wrap;html=1;" parent="1" vertex="1">
          <mxGeometry x="77.5" y="130" width="132.5" height="50" as="geometry" />
        </mxCell>
        <mxCell id="nxoV8YWPa040tWxA0tgp-14" value="" style="endArrow=classic;html=1;rounded=0;" parent="1" source="nxoV8YWPa040tWxA0tgp-1" target="nxoV8YWPa040tWxA0tgp-13" edge="1">
          <mxGeometry width="50" height="50" relative="1" as="geometry">
            <mxPoint x="430" y="280" as="sourcePoint" />
            <mxPoint x="480" y="230" as="targetPoint" />
          </mxGeometry>
        </mxCell>
        <mxCell id="PyVCdMeC3oikazkzIjub-26" value="" style="endArrow=classic;html=1;rounded=0;" parent="1" source="nxoV8YWPa040tWxA0tgp-1" target="T3f63SWFsZ_fOhAlia7K-2" edge="1">
          <mxGeometry width="50" height="50" relative="1" as="geometry">
            <mxPoint x="358.71351821846565" y="75.233586303229" as="sourcePoint" />
            <mxPoint x="447.57233409138007" y="84.73186295942764" as="targetPoint" />
          </mxGeometry>
        </mxCell>
        <mxCell id="PyVCdMeC3oikazkzIjub-33" value="Moderation History" style="ellipse;whiteSpace=wrap;html=1;" parent="1" vertex="1">
          <mxGeometry x="206.25" y="330" width="140" height="40" as="geometry" />
        </mxCell>
        <mxCell id="PyVCdMeC3oikazkzIjub-34" value="Warn User" style="ellipse;whiteSpace=wrap;html=1;" parent="1" vertex="1">
          <mxGeometry x="325" y="170" width="110" height="40" as="geometry" />
        </mxCell>
        <mxCell id="PyVCdMeC3oikazkzIjub-37" value="include" style="endArrow=classic;html=1;rounded=0;" parent="1" source="nxoV8YWPa040tWxA0tgp-13" target="PyVCdMeC3oikazkzIjub-34" edge="1">
          <mxGeometry width="50" height="50" relative="1" as="geometry">
            <mxPoint x="-364" y="104.5" as="sourcePoint" />
            <mxPoint x="-88" y="-173.5" as="targetPoint" />
          </mxGeometry>
        </mxCell>
        <mxCell id="PyVCdMeC3oikazkzIjub-38" value="Delete Post &amp;amp; Comments" style="ellipse;whiteSpace=wrap;html=1;" parent="1" vertex="1">
          <mxGeometry x="310" y="100" width="160" height="50" as="geometry" />
        </mxCell>
        <mxCell id="PyVCdMeC3oikazkzIjub-41" value="include" style="endArrow=classic;html=1;rounded=0;" parent="1" source="nxoV8YWPa040tWxA0tgp-13" target="PyVCdMeC3oikazkzIjub-38" edge="1">
          <mxGeometry width="50" height="50" relative="1" as="geometry">
            <mxPoint x="45" y="240" as="sourcePoint" />
            <mxPoint x="293" y="48" as="targetPoint" />
          </mxGeometry>
        </mxCell>
        <mxCell id="PyVCdMeC3oikazkzIjub-42" value="" style="endArrow=classic;html=1;rounded=0;" parent="1" source="nxoV8YWPa040tWxA0tgp-1" target="PyVCdMeC3oikazkzIjub-33" edge="1">
          <mxGeometry width="50" height="50" relative="1" as="geometry">
            <mxPoint x="45" y="242" as="sourcePoint" />
            <mxPoint x="287" y="97" as="targetPoint" />
          </mxGeometry>
        </mxCell>
        <mxCell id="T3f63SWFsZ_fOhAlia7K-2" value="Review Pending Post" style="ellipse;whiteSpace=wrap;html=1;" parent="1" vertex="1">
          <mxGeometry x="230" y="240" width="132.5" height="50" as="geometry" />
        </mxCell>
        <mxCell id="T3f63SWFsZ_fOhAlia7K-6" value="Hide Post &amp;amp; Comments" style="ellipse;whiteSpace=wrap;html=1;" parent="1" vertex="1">
          <mxGeometry x="300" y="30" width="160" height="50" as="geometry" />
        </mxCell>
        <mxCell id="T3f63SWFsZ_fOhAlia7K-7" value="include" style="endArrow=classic;html=1;rounded=0;" parent="1" source="nxoV8YWPa040tWxA0tgp-13" target="T3f63SWFsZ_fOhAlia7K-6" edge="1">
          <mxGeometry width="50" height="50" relative="1" as="geometry">
            <mxPoint x="332" y="128" as="sourcePoint" />
            <mxPoint x="491" y="75" as="targetPoint" />
          </mxGeometry>
        </mxCell>
        <mxCell id="T3f63SWFsZ_fOhAlia7K-9" value="Reinstate Post &amp;amp; Comments" style="ellipse;whiteSpace=wrap;html=1;" parent="1" vertex="1">
          <mxGeometry x="440" y="325" width="170" height="45" as="geometry" />
        </mxCell>
        <mxCell id="T3f63SWFsZ_fOhAlia7K-10" value="extends" style="endArrow=classic;html=1;rounded=0;dashed=1;" parent="1" source="T3f63SWFsZ_fOhAlia7K-9" target="PyVCdMeC3oikazkzIjub-33" edge="1">
          <mxGeometry width="50" height="50" relative="1" as="geometry">
            <mxPoint x="400" y="280" as="sourcePoint" />
            <mxPoint x="443" y="508" as="targetPoint" />
          </mxGeometry>
        </mxCell>
        <mxCell id="LRnZ16kxkg37WlZDjJgv-1" value="Approve Post" style="ellipse;whiteSpace=wrap;html=1;" vertex="1" parent="1">
          <mxGeometry x="478.75" y="220" width="91.25" height="30" as="geometry" />
        </mxCell>
        <mxCell id="LRnZ16kxkg37WlZDjJgv-2" value="Deny Post" style="ellipse;whiteSpace=wrap;html=1;" vertex="1" parent="1">
          <mxGeometry x="478.75" y="270" width="92.5" height="30" as="geometry" />
        </mxCell>
        <mxCell id="LRnZ16kxkg37WlZDjJgv-3" value="include" style="endArrow=classic;html=1;rounded=0;" edge="1" parent="1" source="T3f63SWFsZ_fOhAlia7K-2" target="LRnZ16kxkg37WlZDjJgv-1">
          <mxGeometry width="50" height="50" relative="1" as="geometry">
            <mxPoint x="300" y="240" as="sourcePoint" />
            <mxPoint x="408" y="226" as="targetPoint" />
          </mxGeometry>
        </mxCell>
        <mxCell id="LRnZ16kxkg37WlZDjJgv-4" value="include" style="endArrow=classic;html=1;rounded=0;" edge="1" parent="1" source="T3f63SWFsZ_fOhAlia7K-2" target="LRnZ16kxkg37WlZDjJgv-2">
          <mxGeometry width="50" height="50" relative="1" as="geometry">
            <mxPoint x="227" y="168" as="sourcePoint" />
            <mxPoint x="335" y="154" as="targetPoint" />
          </mxGeometry>
        </mxCell>
      </root>
    </mxGraphModel>
  </diagram>
</mxfile>
